<svg width="198" height="71" viewBox="0 0 198 71" fill="none" xmlns="http://www.w3.org/2000/svg">
<path d="M13.1676 29.4545C13.1676 30.8821 12.897 32.0966 12.3558 33.098C11.8189 34.0994 11.0859 34.8643 10.157 35.3928C9.23224 35.9169 8.19247 36.179 7.03764 36.179C5.87429 36.179 4.83026 35.9148 3.90554 35.3864C2.98082 34.858 2.25 34.093 1.71307 33.0916C1.17614 32.0902 0.90767 30.8778 0.90767 29.4545C0.90767 28.027 1.17614 26.8125 1.71307 25.8111C2.25 24.8097 2.98082 24.0469 3.90554 23.5227C4.83026 22.9943 5.87429 22.7301 7.03764 22.7301C8.19247 22.7301 9.23224 22.9943 10.157 23.5227C11.0859 24.0469 11.8189 24.8097 12.3558 25.8111C12.897 26.8125 13.1676 28.027 13.1676 29.4545ZM10.3615 29.4545C10.3615 28.5298 10.223 27.75 9.94602 27.1151C9.6733 26.4801 9.28764 25.9986 8.78906 25.6705C8.29048 25.3423 7.70668 25.1783 7.03764 25.1783C6.36861 25.1783 5.7848 25.3423 5.28622 25.6705C4.78764 25.9986 4.39986 26.4801 4.12287 27.1151C3.85014 27.75 3.71378 28.5298 3.71378 29.4545C3.71378 30.3793 3.85014 31.1591 4.12287 31.794C4.39986 32.429 4.78764 32.9105 5.28622 33.2386C5.7848 33.5668 6.36861 33.7308 7.03764 33.7308C7.70668 33.7308 8.29048 33.5668 8.78906 33.2386C9.28764 32.9105 9.6733 32.429 9.94602 31.794C10.223 31.1591 10.3615 30.3793 10.3615 29.4545ZM15.742 22.9091H18.4458V33.7756H22.2044V22.9091H24.8954V33.7756H28.6092V22.9091H31.3002V36H15.742V22.9091ZM34.0968 22.9091H36.8581V31.142H36.9668L42.6238 22.9091H45.0463V36H42.2786V27.7607H42.1827L36.4938 36H34.0968V22.9091ZM47.3331 36V22.9091H56.0199V25.1911H50.1009V27.7479H52.2294C53.2649 27.7479 54.1577 27.9162 54.9077 28.2528C55.6619 28.5852 56.2436 29.0561 56.6527 29.6655C57.0618 30.2749 57.2663 30.9929 57.2663 31.8196C57.2663 32.642 57.0618 33.3686 56.6527 33.9993C56.2436 34.6257 55.6619 35.1158 54.9077 35.4695C54.1577 35.8232 53.2649 36 52.2294 36H47.3331ZM50.1009 33.7756H52.2294C52.7237 33.7756 53.1413 33.6861 53.4822 33.5071C53.8232 33.3239 54.081 33.0831 54.2557 32.7848C54.4347 32.4822 54.5241 32.152 54.5241 31.794C54.5241 31.2741 54.326 30.8352 53.9297 30.4773C53.5376 30.1151 52.9709 29.9339 52.2294 29.9339H50.1009V33.7756ZM66.9775 36L62.7715 30.4197H61.8255V36H59.0577V22.9091H61.8255V28.1378H62.3816L66.7282 22.9091H70.1735L65.0662 28.9815L70.41 36H66.9775ZM71.8018 22.9091H74.5632V31.142H74.6719L80.3288 22.9091H82.7514V36H79.9837V27.7607H79.8878L74.1989 36H71.8018V22.9091ZM1.13778 44.9091H3.89915V53.142H4.00781L9.66477 44.9091H12.0874V58H9.3196V49.7607H9.22372L3.5348 58H1.13778V44.9091ZM18.5401 58V44.9091H23.7816C24.7447 44.9091 25.5479 45.0518 26.1914 45.3374C26.8349 45.6229 27.3185 46.0192 27.6424 46.5263C27.9663 47.0291 28.1282 47.6087 28.1282 48.2649C28.1282 48.7763 28.0259 49.2259 27.8214 49.6136C27.6168 49.9972 27.3356 50.3125 26.9776 50.5597C26.6239 50.8026 26.2191 50.9751 25.7631 51.0774V51.2053C26.2617 51.2266 26.7283 51.3672 27.163 51.6271C27.6019 51.8871 27.9577 52.2514 28.2305 52.7202C28.5032 53.1847 28.6396 53.7386 28.6396 54.3821C28.6396 55.0767 28.467 55.6967 28.1218 56.2422C27.7809 56.7834 27.2759 57.2116 26.6069 57.527C25.9379 57.8423 25.1133 58 24.1332 58H18.5401ZM21.3079 55.7372H23.5643C24.3356 55.7372 24.8981 55.5902 25.2518 55.2962C25.6055 54.9979 25.7823 54.6016 25.7823 54.1072C25.7823 53.745 25.695 53.4254 25.5202 53.1484C25.3455 52.8714 25.0962 52.6541 24.7724 52.4964C24.4528 52.3388 24.0714 52.2599 23.6282 52.2599H21.3079V55.7372ZM21.3079 50.3871H23.3597C23.739 50.3871 24.0756 50.321 24.3697 50.1889C24.668 50.0526 24.9023 49.8608 25.0728 49.6136C25.2475 49.3665 25.3349 49.0703 25.3349 48.7251C25.3349 48.2521 25.1665 47.8707 24.8299 47.581C24.4975 47.2912 24.0245 47.1463 23.4109 47.1463H21.3079V50.3871ZM42.4703 51.4545C42.4703 52.8821 42.1998 54.0966 41.6586 55.098C41.1216 56.0994 40.3887 56.8643 39.4597 57.3928C38.535 57.9169 37.4952 58.179 36.3404 58.179C35.177 58.179 34.133 57.9148 33.2083 57.3864C32.2836 56.858 31.5527 56.093 31.0158 55.0916C30.4789 54.0902 30.2104 52.8778 30.2104 51.4545C30.2104 50.027 30.4789 48.8125 31.0158 47.8111C31.5527 46.8097 32.2836 46.0469 33.2083 45.5227C34.133 44.9943 35.177 44.7301 36.3404 44.7301C37.4952 44.7301 38.535 44.9943 39.4597 45.5227C40.3887 46.0469 41.1216 46.8097 41.6586 47.8111C42.1998 48.8125 42.4703 50.027 42.4703 51.4545ZM39.6642 51.4545C39.6642 50.5298 39.5257 49.75 39.2488 49.1151C38.976 48.4801 38.5904 47.9986 38.0918 47.6705C37.5932 47.3423 37.0094 47.1783 36.3404 47.1783C35.6713 47.1783 35.0875 47.3423 34.589 47.6705C34.0904 47.9986 33.7026 48.4801 33.4256 49.1151C33.1529 49.75 33.0165 50.5298 33.0165 51.4545C33.0165 52.3793 33.1529 53.1591 33.4256 53.794C33.7026 54.429 34.0904 54.9105 34.589 55.2386C35.0875 55.5668 35.6713 55.7308 36.3404 55.7308C37.0094 55.7308 37.5932 55.5668 38.0918 55.2386C38.5904 54.9105 38.976 54.429 39.2488 53.794C39.5257 53.1591 39.6642 52.3793 39.6642 51.4545ZM49.2827 58.179C48.3281 58.179 47.478 58.0149 46.7322 57.6868C45.9908 57.3544 45.4048 56.8984 44.9744 56.3189C44.5483 55.7351 44.3288 55.0618 44.3161 54.299H47.103C47.12 54.6186 47.2244 54.8999 47.4162 55.1428C47.6122 55.3814 47.8722 55.5668 48.196 55.6989C48.5199 55.831 48.8842 55.897 49.2891 55.897C49.7109 55.897 50.0838 55.8224 50.4077 55.6733C50.7315 55.5241 50.9851 55.3175 51.1683 55.0533C51.3516 54.7891 51.4432 54.4844 51.4432 54.1392C51.4432 53.7898 51.3452 53.4808 51.1491 53.2124C50.9574 52.9396 50.6804 52.7266 50.3182 52.5732C49.9602 52.4197 49.5341 52.343 49.0398 52.343H47.8189V50.3104H49.0398C49.4574 50.3104 49.826 50.2379 50.1456 50.093C50.4695 49.9482 50.7209 49.7479 50.8999 49.4922C51.0788 49.2322 51.1683 48.9297 51.1683 48.5845C51.1683 48.2564 51.0895 47.9688 50.9318 47.7216C50.7784 47.4702 50.5611 47.2741 50.2798 47.1335C50.0028 46.9929 49.679 46.9226 49.3082 46.9226C48.9332 46.9226 48.5902 46.9908 48.2791 47.1271C47.968 47.2592 47.7188 47.4489 47.5312 47.696C47.3438 47.9432 47.2436 48.233 47.2308 48.5653H44.5781C44.5909 47.8111 44.8061 47.1463 45.2237 46.571C45.6413 45.9957 46.2038 45.5462 46.9112 45.2223C47.6229 44.8942 48.4261 44.7301 49.321 44.7301C50.2244 44.7301 51.0149 44.8942 51.6925 45.2223C52.37 45.5504 52.8963 45.9936 53.2713 46.5518C53.6506 47.1058 53.8381 47.728 53.8338 48.4183C53.8381 49.1513 53.6101 49.7628 53.1499 50.2528C52.6939 50.7429 52.0994 51.054 51.3665 51.1861V51.2884C52.3295 51.4119 53.0625 51.7464 53.5653 52.2919C54.0724 52.8331 54.3239 53.5107 54.3196 54.3246C54.3239 55.0703 54.1087 55.733 53.674 56.3125C53.2436 56.892 52.6491 57.348 51.8906 57.6804C51.1321 58.0128 50.2628 58.179 49.2827 58.179ZM56.3858 58V44.9091H61.6273C62.5904 44.9091 63.3936 45.0518 64.0371 45.3374C64.6806 45.6229 65.1642 46.0192 65.4881 46.5263C65.812 47.0291 65.9739 47.6087 65.9739 48.2649C65.9739 48.7763 65.8716 49.2259 65.6671 49.6136C65.4625 49.9972 65.1813 50.3125 64.8233 50.5597C64.4696 50.8026 64.0648 50.9751 63.6088 51.0774V51.2053C64.1074 51.2266 64.574 51.3672 65.0087 51.6271C65.4476 51.8871 65.8034 52.2514 66.0762 52.7202C66.3489 53.1847 66.4853 53.7386 66.4853 54.3821C66.4853 55.0767 66.3127 55.6967 65.9675 56.2422C65.6266 56.7834 65.1216 57.2116 64.4526 57.527C63.7836 57.8423 62.959 58 61.9789 58H56.3858ZM59.1536 55.7372H61.41C62.1813 55.7372 62.7438 55.5902 63.0975 55.2962C63.4512 54.9979 63.628 54.6016 63.628 54.1072C63.628 53.745 63.5407 53.4254 63.3659 53.1484C63.1912 52.8714 62.9419 52.6541 62.6181 52.4964C62.2985 52.3388 61.9171 52.2599 61.4739 52.2599H59.1536V55.7372ZM59.1536 50.3871H61.2054C61.5847 50.3871 61.9213 50.321 62.2154 50.1889C62.5137 50.0526 62.748 49.8608 62.9185 49.6136C63.0932 49.3665 63.1806 49.0703 63.1806 48.7251C63.1806 48.2521 63.0123 47.8707 62.6756 47.581C62.3432 47.2912 61.8702 47.1463 61.2566 47.1463H59.1536V50.3871ZM68.2862 58V44.9091H73.451C74.4439 44.9091 75.2898 45.0987 75.9886 45.478C76.6875 45.853 77.2202 46.375 77.5866 47.044C77.9574 47.7088 78.1428 48.4759 78.1428 49.3452C78.1428 50.2145 77.9553 50.9815 77.5803 51.6463C77.2053 52.3111 76.6619 52.8288 75.9503 53.1996C75.2429 53.5703 74.3864 53.7557 73.3807 53.7557H70.0888V51.5376H72.9332C73.4659 51.5376 73.9048 51.446 74.25 51.2628C74.5994 51.0753 74.8594 50.8175 75.0298 50.4893C75.2045 50.157 75.2919 49.7756 75.2919 49.3452C75.2919 48.9105 75.2045 48.5312 75.0298 48.2074C74.8594 47.8793 74.5994 47.6257 74.25 47.4467C73.9006 47.2635 73.4574 47.1719 72.9205 47.1719H71.054V58H68.2862ZM80.6852 58H77.7193L82.2385 44.9091H85.8052L90.318 58H87.3521L84.073 47.9006H83.9707L80.6852 58ZM80.4998 52.8544H87.5055V55.0149H80.4998V52.8544ZM89.7955 47.1911V44.9091H100.547V47.1911H96.5391V58H93.8033V47.1911H89.7955ZM104.139 49.7479H107.259C108.298 49.7479 109.193 49.9162 109.943 50.2528C110.697 50.5852 111.279 51.0561 111.688 51.6655C112.097 52.2749 112.3 52.9929 112.295 53.8196C112.3 54.642 112.097 55.3686 111.688 55.9993C111.279 56.6257 110.697 57.1158 109.943 57.4695C109.193 57.8232 108.298 58 107.259 58H102.369V44.9091H105.13V55.7756H107.259C107.757 55.7756 108.177 55.6861 108.518 55.5071C108.859 55.3239 109.116 55.0831 109.291 54.7848C109.47 54.4822 109.558 54.152 109.553 53.794C109.558 53.2741 109.362 52.8352 108.965 52.4773C108.573 52.1151 108.004 51.9339 107.259 51.9339H104.139V49.7479ZM116.124 44.9091V58H113.363V44.9091H116.124Z" fill="#1F2648"/>
<path d="M149.82 22.036C151.416 22.036 152.732 22.456 153.768 23.296C154.832 24.108 155.644 25.522 156.204 27.538C156.792 29.526 157.086 32.27 157.086 35.77C157.086 39.242 156.792 41.986 156.204 44.002C155.644 46.018 154.832 47.432 153.768 48.244C152.732 49.056 151.416 49.462 149.82 49.462C148.196 49.462 146.852 49.056 145.788 48.244C144.752 47.432 143.94 46.018 143.352 44.002C142.792 41.986 142.512 39.242 142.512 35.77C142.512 32.27 142.792 29.512 143.352 27.496C143.912 25.48 144.724 24.066 145.788 23.254C146.852 22.442 148.196 22.036 149.82 22.036ZM149.82 24.892C148.336 24.892 147.286 25.718 146.67 27.37C146.082 29.022 145.788 31.374 145.788 34.426V37.114C145.788 40.138 146.082 42.49 146.67 44.17C147.286 45.822 148.336 46.648 149.82 46.648C151.304 46.648 152.34 45.822 152.928 44.17C153.516 42.49 153.81 40.138 153.81 37.114V34.426C153.81 31.374 153.516 29.022 152.928 27.37C152.34 25.718 151.304 24.892 149.82 24.892ZM161.074 53.788L162.628 49H161.074V44.842H164.938V48.664L163.09 53.788H161.074ZM184.592 49H169.346V46.144H175.646V27.328H169.304V25.312C170.424 25.2 171.782 24.892 173.378 24.388C174.974 23.856 176.36 23.24 177.536 22.54H178.796V46.144H184.592V49ZM187.872 37.444C188.58 37.444 189.108 37.672 189.456 38.128C189.816 38.572 189.996 39.346 189.996 40.45C189.996 41.554 189.816 42.328 189.456 42.772C189.108 43.204 188.58 43.42 187.872 43.42C187.164 43.42 186.636 43.198 186.288 42.754C185.94 42.31 185.766 41.542 185.766 40.45C185.766 39.346 185.94 38.572 186.288 38.128C186.636 37.672 187.164 37.444 187.872 37.444ZM187.062 49L193.992 37.66H195.18L188.232 49H187.062ZM187.872 38.416C187.5 38.416 187.242 38.578 187.098 38.902C186.966 39.226 186.9 39.694 186.9 40.306V40.558C186.9 41.17 186.966 41.638 187.098 41.962C187.242 42.286 187.5 42.448 187.872 42.448C188.244 42.448 188.496 42.286 188.628 41.962C188.772 41.638 188.844 41.17 188.844 40.558V40.306C188.844 39.694 188.772 39.226 188.628 38.902C188.496 38.578 188.244 38.416 187.872 38.416ZM194.352 43.222C195.06 43.222 195.594 43.45 195.954 43.906C196.314 44.35 196.494 45.118 196.494 46.21C196.494 47.314 196.314 48.088 195.954 48.532C195.594 48.976 195.06 49.198 194.352 49.198C193.656 49.198 193.128 48.976 192.768 48.532C192.408 48.076 192.228 47.302 192.228 46.21C192.228 45.118 192.408 44.35 192.768 43.906C193.128 43.45 193.656 43.222 194.352 43.222ZM194.352 44.212C193.98 44.212 193.722 44.374 193.578 44.698C193.446 45.01 193.38 45.472 193.38 46.084V46.336C193.38 46.948 193.446 47.416 193.578 47.74C193.722 48.052 193.98 48.208 194.352 48.208C194.736 48.208 194.994 48.052 195.126 47.74C195.27 47.416 195.342 46.948 195.342 46.336V46.084C195.342 45.472 195.27 45.01 195.126 44.698C194.994 44.374 194.736 44.212 194.352 44.212Z" fill="#1F2648"/>
<path d="M138.26 45.34L133.16 51.494H132.48L127.414 45.34V44.048L131.698 45.85V22.798H133.976V45.85L138.26 44.048V45.34Z" fill="#1F2648"/>
<path d="M116.496 30.388H117.06L116.736 32.74H116.184L116.256 31H111.288L110.808 32.74H110.268L110.604 30.388H111.072C111.296 30.188 111.492 29.94 111.66 29.644C111.836 29.348 112.02 28.904 112.212 28.312C112.412 27.72 112.656 26.88 112.944 25.792L113.748 22.78H117.564L116.496 30.388ZM115.776 30.388L116.76 23.392H114.3L113.664 25.864C113.384 26.936 113.148 27.756 112.956 28.324C112.764 28.892 112.576 29.328 112.392 29.632C112.208 29.936 111.988 30.188 111.732 30.388H115.776ZM123.02 22.648C123.9 22.648 124.592 22.932 125.096 23.5C125.6 24.06 125.852 24.864 125.852 25.912C125.852 26.712 125.72 27.512 125.456 28.312C125.192 29.112 124.76 29.784 124.16 30.328C123.568 30.864 122.808 31.132 121.88 31.132C121 31.132 120.304 30.848 119.792 30.28C119.28 29.712 119.024 28.904 119.024 27.856C119.024 27.08 119.16 26.292 119.432 25.492C119.704 24.692 120.14 24.02 120.74 23.476C121.34 22.924 122.1 22.648 123.02 22.648ZM122.984 23.26C122.216 23.26 121.592 23.508 121.112 24.004C120.64 24.492 120.3 25.088 120.092 25.792C119.884 26.496 119.78 27.192 119.78 27.88C119.78 28.76 119.964 29.42 120.332 29.86C120.708 30.292 121.228 30.508 121.892 30.508C122.676 30.508 123.308 30.264 123.788 29.776C124.268 29.28 124.608 28.68 124.808 27.976C125.008 27.272 125.108 26.572 125.108 25.876C125.108 25.004 124.924 24.352 124.556 23.92C124.188 23.48 123.664 23.26 122.984 23.26Z" fill="#1F2648"/>
</svg>
