<svg width="201" height="71" viewBox="0 0 201 71" fill="none" xmlns="http://www.w3.org/2000/svg">
<path d="M1.13778 36V22.9091H6.37926C7.34233 22.9091 8.1456 23.0518 8.78906 23.3374C9.43253 23.6229 9.91619 24.0192 10.2401 24.5263C10.5639 25.0291 10.7259 25.6087 10.7259 26.2649C10.7259 26.7763 10.6236 27.2259 10.419 27.6136C10.2145 27.9972 9.93324 28.3125 9.57528 28.5597C9.22159 28.8026 8.81676 28.9751 8.3608 29.0774V29.2053C8.85938 29.2266 9.32599 29.3672 9.76065 29.6271C10.1996 29.8871 10.5554 30.2514 10.8281 30.7202C11.1009 31.1847 11.2372 31.7386 11.2372 32.3821C11.2372 33.0767 11.0646 33.6967 10.7195 34.2422C10.3786 34.7834 9.87358 35.2116 9.20455 35.527C8.53551 35.8423 7.71094 36 6.73082 36H1.13778ZM3.90554 33.7372H6.16193C6.93324 33.7372 7.49574 33.5902 7.84943 33.2962C8.20313 32.9979 8.37997 32.6016 8.37997 32.1072C8.37997 31.745 8.29261 31.4254 8.1179 31.1484C7.94318 30.8714 7.69389 30.6541 7.37003 30.4964C7.05043 30.3388 6.66903 30.2599 6.22585 30.2599H3.90554V33.7372ZM3.90554 28.3871H5.95739C6.33665 28.3871 6.6733 28.321 6.96733 28.1889C7.26563 28.0526 7.5 27.8608 7.67045 27.6136C7.84517 27.3665 7.93253 27.0703 7.93253 26.7251C7.93253 26.2521 7.7642 25.8707 7.42756 25.581C7.09517 25.2912 6.62216 25.1463 6.00852 25.1463H3.90554V28.3871ZM13.0382 36V22.9091H18.2029C19.1958 22.9091 20.0417 23.0987 20.7406 23.478C21.4395 23.853 21.9721 24.375 22.3386 25.044C22.7093 25.7088 22.8947 26.4759 22.8947 27.3452C22.8947 28.2145 22.7072 28.9815 22.3322 29.6463C21.9572 30.3111 21.4139 30.8288 20.7022 31.1996C19.9949 31.5703 19.1383 31.7557 18.1326 31.7557H14.8407V29.5376H17.6852C18.2179 29.5376 18.6568 29.446 19.002 29.2628C19.3514 29.0753 19.6113 28.8175 19.7818 28.4893C19.9565 28.157 20.0439 27.7756 20.0439 27.3452C20.0439 26.9105 19.9565 26.5312 19.7818 26.2074C19.6113 25.8793 19.3514 25.6257 19.002 25.4467C18.6525 25.2635 18.2093 25.1719 17.6724 25.1719H15.8059V36H13.0382ZM24.6925 36V22.9091H33.5135V25.1911H27.4602V28.3104H33.0597V30.5923H27.4602V33.718H33.5391V36H24.6925ZM35.714 22.9091H39.1273L42.7324 31.7045H42.8858L46.4909 22.9091H49.9043V36H47.2196V27.4794H47.111L43.7232 35.9361H41.8951L38.5073 27.4474H38.3986V36H35.714V22.9091ZM62.233 36H59.4716V25.1719H57.6051C57.0724 25.1719 56.6293 25.2507 56.2756 25.4084C55.9261 25.5618 55.6641 25.7876 55.4893 26.0859C55.3146 26.3842 55.2273 26.7507 55.2273 27.1854C55.2273 27.6158 55.3146 27.9759 55.4893 28.2656C55.6641 28.5554 55.9261 28.7727 56.2756 28.9176C56.625 29.0625 57.0639 29.1349 57.5923 29.1349H60.5966V31.3594H57.1449C56.1435 31.3594 55.2869 31.1932 54.5753 30.8608C53.8636 30.5284 53.3203 30.0511 52.9453 29.429C52.5703 28.8026 52.3828 28.0547 52.3828 27.1854C52.3828 26.3203 52.5661 25.5682 52.9325 24.929C53.3033 24.2855 53.8381 23.7891 54.5369 23.4396C55.2401 23.0859 56.0859 22.9091 57.0746 22.9091H62.233V36ZM55.1697 30.0426H58.1548L54.9716 36H51.9162L55.1697 30.0426ZM68.6729 36V22.9091H71.4407V28.3104H77.0593V22.9091H79.8207V36H77.0593V30.5923H71.4407V36H68.6729ZM84.359 36H81.3931L85.9123 22.9091H89.479L93.9918 36H91.0259L87.7468 25.9006H87.6445L84.359 36ZM84.1737 30.8544H91.1793V33.0149H84.1737V30.8544ZM1.13778 44.9091H4.55114L8.15625 53.7045H8.30966L11.9148 44.9091H15.3281V58H12.6435V49.4794H12.5348L9.14702 57.9361H7.31889L3.93111 49.4474H3.82244V58H1.13778V44.9091ZM19.8649 58H16.899L21.4181 44.9091H24.9849L29.4977 58H26.5318L23.2527 47.9006H23.1504L19.8649 58ZM19.6795 52.8544H26.6852V55.0149H19.6795V52.8544ZM31.0733 58V44.9091H36.2381C37.231 44.9091 38.0769 45.0987 38.7757 45.478C39.4746 45.853 40.0073 46.375 40.3738 47.044C40.7445 47.7088 40.9299 48.4759 40.9299 49.3452C40.9299 50.2145 40.7424 50.9815 40.3674 51.6463C39.9924 52.3111 39.449 52.8288 38.7374 53.1996C38.03 53.5703 37.1735 53.7557 36.1678 53.7557H32.8759V51.5376H35.7203C36.253 51.5376 36.6919 51.446 37.0371 51.2628C37.3865 51.0753 37.6465 50.8175 37.8169 50.4893C37.9917 50.157 38.079 49.7756 38.079 49.3452C38.079 48.9105 37.9917 48.5312 37.8169 48.2074C37.6465 47.8793 37.3865 47.6257 37.0371 47.4467C36.6877 47.2635 36.2445 47.1719 35.7076 47.1719H33.8411V58H31.0733ZM50.6474 58L46.4414 52.4197H45.4954V58H42.7276V44.9091H45.4954V50.1378H46.0515L50.3981 44.9091H53.8434L48.7362 50.9815L54.0799 58H50.6474ZM55.4718 44.9091H58.2331V53.142H58.3418L63.9988 44.9091H66.4213V58H63.6536V49.7607H63.5577L57.8688 58H55.4718V44.9091ZM68.7081 58V44.9091H73.8729C74.8658 44.9091 75.7116 45.0987 76.4105 45.478C77.1094 45.853 77.642 46.375 78.0085 47.044C78.3793 47.7088 78.5646 48.4759 78.5646 49.3452C78.5646 50.2145 78.3771 50.9815 78.0021 51.6463C77.6271 52.3111 77.0838 52.8288 76.3722 53.1996C75.6648 53.5703 74.8082 53.7557 73.8026 53.7557H70.5107V51.5376H73.3551C73.8878 51.5376 74.3267 51.446 74.6719 51.2628C75.0213 51.0753 75.2813 50.8175 75.4517 50.4893C75.6264 50.157 75.7138 49.7756 75.7138 49.3452C75.7138 48.9105 75.6264 48.5312 75.4517 48.2074C75.2813 47.8793 75.0213 47.6257 74.6719 47.4467C74.3224 47.2635 73.8793 47.1719 73.3423 47.1719H71.4759V58H68.7081ZM92.3922 51.4545C92.3922 52.8821 92.1216 54.0966 91.5804 55.098C91.0435 56.0994 90.3105 56.8643 89.3816 57.3928C88.4569 57.9169 87.4171 58.179 86.2623 58.179C85.0989 58.179 84.0549 57.9148 83.1301 57.3864C82.2054 56.858 81.4746 56.093 80.9377 55.0916C80.4007 54.0902 80.1323 52.8778 80.1323 51.4545C80.1323 50.027 80.4007 48.8125 80.9377 47.8111C81.4746 46.8097 82.2054 46.0469 83.1301 45.5227C84.0549 44.9943 85.0989 44.7301 86.2623 44.7301C87.4171 44.7301 88.4569 44.9943 89.3816 45.5227C90.3105 46.0469 91.0435 46.8097 91.5804 47.8111C92.1216 48.8125 92.3922 50.027 92.3922 51.4545ZM89.5861 51.4545C89.5861 50.5298 89.4476 49.75 89.1706 49.1151C88.8979 48.4801 88.5123 47.9986 88.0137 47.6705C87.5151 47.3423 86.9313 47.1783 86.2623 47.1783C85.5932 47.1783 85.0094 47.3423 84.5108 47.6705C84.0123 47.9986 83.6245 48.4801 83.3475 49.1151C83.0748 49.75 82.9384 50.5298 82.9384 51.4545C82.9384 52.3793 83.0748 53.1591 83.3475 53.794C83.6245 54.429 84.0123 54.9105 84.5108 55.2386C85.0094 55.5668 85.5932 55.7308 86.2623 55.7308C86.9313 55.7308 87.5151 55.5668 88.0137 55.2386C88.5123 54.9105 88.8979 54.429 89.1706 53.794C89.4476 53.1591 89.5861 52.3793 89.5861 51.4545ZM94.4425 58V44.9091H99.6839C100.647 44.9091 101.45 45.0518 102.094 45.3374C102.737 45.6229 103.221 46.0192 103.545 46.5263C103.869 47.0291 104.031 47.6087 104.031 48.2649C104.031 48.7763 103.928 49.2259 103.724 49.6136C103.519 49.9972 103.238 50.3125 102.88 50.5597C102.526 50.8026 102.121 50.9751 101.665 51.0774V51.2053C102.164 51.2266 102.631 51.3672 103.065 51.6271C103.504 51.8871 103.86 52.2514 104.133 52.7202C104.406 53.1847 104.542 53.7386 104.542 54.3821C104.542 55.0767 104.369 55.6967 104.024 56.2422C103.683 56.7834 103.178 57.2116 102.509 57.527C101.84 57.8423 101.016 58 100.036 58H94.4425ZM97.2102 55.7372H99.4666C100.238 55.7372 100.8 55.5902 101.154 55.2962C101.508 54.9979 101.685 54.6016 101.685 54.1072C101.685 53.745 101.597 53.4254 101.423 53.1484C101.248 52.8714 100.999 52.6541 100.675 52.4964C100.355 52.3388 99.9737 52.2599 99.5305 52.2599H97.2102V55.7372ZM97.2102 50.3871H99.2621C99.6413 50.3871 99.978 50.321 100.272 50.1889C100.57 50.0526 100.805 49.8608 100.975 49.6136C101.15 49.3665 101.237 49.0703 101.237 48.7251C101.237 48.2521 101.069 47.8707 100.732 47.581C100.4 47.2912 99.9268 47.1463 99.3132 47.1463H97.2102V50.3871ZM114.263 58L110.057 52.4197H109.111V58H106.343V44.9091H109.111V50.1378H109.667L114.013 44.9091H117.459L112.351 50.9815L117.695 58H114.263ZM120.5 58.179V55.929H121.209C121.563 55.929 121.848 55.8864 122.066 55.8011C122.283 55.7116 122.456 55.5817 122.583 55.4112C122.716 55.2365 122.826 55.0192 122.916 54.7592L123.076 54.331L118.32 44.9091H121.184L124.265 51.3523L126.841 44.9091H129.666L125.153 55.4304C124.936 55.9162 124.678 56.3679 124.38 56.7855C124.086 57.2031 123.708 57.5398 123.248 57.7955C122.788 58.0511 122.2 58.179 121.484 58.179H120.5Z" fill="#1F2648"/>
<path d="M161.82 22.036C163.948 22.036 165.586 22.736 166.734 24.136C167.91 25.536 168.498 27.3 168.498 29.428C168.498 30.688 168.246 31.85 167.742 32.914C167.266 33.95 166.566 34.79 165.642 35.434C167.938 36.554 169.086 38.654 169.086 41.734C169.086 44.002 168.484 45.864 167.28 47.32C166.076 48.748 164.256 49.462 161.82 49.462C159.356 49.462 157.522 48.748 156.318 47.32C155.114 45.864 154.512 44.002 154.512 41.734C154.512 38.654 155.66 36.554 157.956 35.434C157.032 34.79 156.318 33.95 155.814 32.914C155.338 31.85 155.1 30.688 155.1 29.428C155.1 27.3 155.688 25.536 156.864 24.136C158.04 22.736 159.692 22.036 161.82 22.036ZM161.82 24.892C160.728 24.892 159.86 25.298 159.216 26.11C158.572 26.922 158.25 28.042 158.25 29.47C158.25 30.898 158.572 32.018 159.216 32.83C159.86 33.642 160.728 34.048 161.82 34.048C162.912 34.048 163.78 33.642 164.424 32.83C165.068 32.018 165.39 30.898 165.39 29.47C165.39 28.042 165.068 26.922 164.424 26.11C163.78 25.298 162.912 24.892 161.82 24.892ZM161.82 36.862C160.532 36.862 159.538 37.296 158.838 38.164C158.138 39.032 157.788 40.222 157.788 41.734C157.788 43.274 158.124 44.478 158.796 45.346C159.496 46.214 160.504 46.648 161.82 46.648C163.108 46.648 164.088 46.214 164.76 45.346C165.46 44.478 165.81 43.274 165.81 41.734C165.81 40.222 165.46 39.032 164.76 38.164C164.088 37.296 163.108 36.862 161.82 36.862ZM179.416 22.036C181.012 22.036 182.328 22.456 183.364 23.296C184.428 24.108 185.24 25.522 185.8 27.538C186.388 29.526 186.682 32.27 186.682 35.77C186.682 39.242 186.388 41.986 185.8 44.002C185.24 46.018 184.428 47.432 183.364 48.244C182.328 49.056 181.012 49.462 179.416 49.462C177.792 49.462 176.448 49.056 175.384 48.244C174.348 47.432 173.536 46.018 172.948 44.002C172.388 41.986 172.108 39.242 172.108 35.77C172.108 32.27 172.388 29.512 172.948 27.496C173.508 25.48 174.32 24.066 175.384 23.254C176.448 22.442 177.792 22.036 179.416 22.036ZM179.416 24.892C177.932 24.892 176.882 25.718 176.266 27.37C175.678 29.022 175.384 31.374 175.384 34.426V37.114C175.384 40.138 175.678 42.49 176.266 44.17C176.882 45.822 177.932 46.648 179.416 46.648C180.9 46.648 181.936 45.822 182.524 44.17C183.112 42.49 183.406 40.138 183.406 37.114V34.426C183.406 31.374 183.112 29.022 182.524 27.37C181.936 25.718 180.9 24.892 179.416 24.892ZM191.053 37.444C191.761 37.444 192.289 37.672 192.637 38.128C192.997 38.572 193.177 39.346 193.177 40.45C193.177 41.554 192.997 42.328 192.637 42.772C192.289 43.204 191.761 43.42 191.053 43.42C190.345 43.42 189.817 43.198 189.469 42.754C189.121 42.31 188.947 41.542 188.947 40.45C188.947 39.346 189.121 38.572 189.469 38.128C189.817 37.672 190.345 37.444 191.053 37.444ZM190.243 49L197.173 37.66H198.361L191.413 49H190.243ZM191.053 38.416C190.681 38.416 190.423 38.578 190.279 38.902C190.147 39.226 190.081 39.694 190.081 40.306V40.558C190.081 41.17 190.147 41.638 190.279 41.962C190.423 42.286 190.681 42.448 191.053 42.448C191.425 42.448 191.677 42.286 191.809 41.962C191.953 41.638 192.025 41.17 192.025 40.558V40.306C192.025 39.694 191.953 39.226 191.809 38.902C191.677 38.578 191.425 38.416 191.053 38.416ZM197.533 43.222C198.241 43.222 198.775 43.45 199.135 43.906C199.495 44.35 199.675 45.118 199.675 46.21C199.675 47.314 199.495 48.088 199.135 48.532C198.775 48.976 198.241 49.198 197.533 49.198C196.837 49.198 196.309 48.976 195.949 48.532C195.589 48.076 195.409 47.302 195.409 46.21C195.409 45.118 195.589 44.35 195.949 43.906C196.309 43.45 196.837 43.222 197.533 43.222ZM197.533 44.212C197.161 44.212 196.903 44.374 196.759 44.698C196.627 45.01 196.561 45.472 196.561 46.084V46.336C196.561 46.948 196.627 47.416 196.759 47.74C196.903 48.052 197.161 48.208 197.533 48.208C197.917 48.208 198.175 48.052 198.307 47.74C198.451 47.416 198.523 46.948 198.523 46.336V46.084C198.523 45.472 198.451 45.01 198.307 44.698C198.175 44.374 197.917 44.212 197.533 44.212Z" fill="#1F2648"/>
<path d="M150.26 45.34L145.16 51.494H144.48L139.414 45.34V44.048L143.698 45.85V22.798H145.976V45.85L150.26 44.048V45.34Z" fill="#1F2648"/>
<path d="M128.496 30.388H129.06L128.736 32.74H128.184L128.256 31H123.288L122.808 32.74H122.268L122.604 30.388H123.072C123.296 30.188 123.492 29.94 123.66 29.644C123.836 29.348 124.02 28.904 124.212 28.312C124.412 27.72 124.656 26.88 124.944 25.792L125.748 22.78H129.564L128.496 30.388ZM127.776 30.388L128.76 23.392H126.3L125.664 25.864C125.384 26.936 125.148 27.756 124.956 28.324C124.764 28.892 124.576 29.328 124.392 29.632C124.208 29.936 123.988 30.188 123.732 30.388H127.776ZM135.02 22.648C135.9 22.648 136.592 22.932 137.096 23.5C137.6 24.06 137.852 24.864 137.852 25.912C137.852 26.712 137.72 27.512 137.456 28.312C137.192 29.112 136.76 29.784 136.16 30.328C135.568 30.864 134.808 31.132 133.88 31.132C133 31.132 132.304 30.848 131.792 30.28C131.28 29.712 131.024 28.904 131.024 27.856C131.024 27.08 131.16 26.292 131.432 25.492C131.704 24.692 132.14 24.02 132.74 23.476C133.34 22.924 134.1 22.648 135.02 22.648ZM134.984 23.26C134.216 23.26 133.592 23.508 133.112 24.004C132.64 24.492 132.3 25.088 132.092 25.792C131.884 26.496 131.78 27.192 131.78 27.88C131.78 28.76 131.964 29.42 132.332 29.86C132.708 30.292 133.228 30.508 133.892 30.508C134.676 30.508 135.308 30.264 135.788 29.776C136.268 29.28 136.608 28.68 136.808 27.976C137.008 27.272 137.108 26.572 137.108 25.876C137.108 25.004 136.924 24.352 136.556 23.92C136.188 23.48 135.664 23.26 134.984 23.26Z" fill="#1F2648"/>
</svg>
