<svg width="194" height="71" viewBox="0 0 194 71" fill="none" xmlns="http://www.w3.org/2000/svg">
<path d="M12.2663 21.9091V35H9.53054V24.1591H4.23793V35H1.50213V21.9091H12.2663ZM14.9015 35V21.9091H20.0662C21.0591 21.9091 21.905 22.0987 22.6039 22.478C23.3027 22.853 23.8354 23.375 24.2019 24.044C24.5726 24.7088 24.758 25.4759 24.758 26.3452C24.758 27.2145 24.5705 27.9815 24.1955 28.6463C23.8205 29.3111 23.2772 29.8288 22.5655 30.1996C21.8581 30.5703 21.0016 30.7557 19.9959 30.7557H16.704V28.5376H19.5485C20.0811 28.5376 20.5201 28.446 20.8652 28.2628C21.2147 28.0753 21.4746 27.8175 21.6451 27.4893C21.8198 27.157 21.9071 26.7756 21.9071 26.3452C21.9071 25.9105 21.8198 25.5312 21.6451 25.2074C21.4746 24.8793 21.2147 24.6257 20.8652 24.4467C20.5158 24.2635 20.0726 24.1719 19.5357 24.1719H17.6692V35H14.9015ZM38.5856 28.4545C38.5856 29.8821 38.315 31.0966 37.7738 32.098C37.2369 33.0994 36.5039 33.8643 35.5749 34.3928C34.6502 34.9169 33.6104 35.179 32.4556 35.179C31.2923 35.179 30.2482 34.9148 29.3235 34.3864C28.3988 33.858 27.668 33.093 27.131 32.0916C26.5941 31.0902 26.3256 29.8778 26.3256 28.4545C26.3256 27.027 26.5941 25.8125 27.131 24.8111C27.668 23.8097 28.3988 23.0469 29.3235 22.5227C30.2482 21.9943 31.2923 21.7301 32.4556 21.7301C33.6104 21.7301 34.6502 21.9943 35.5749 22.5227C36.5039 23.0469 37.2369 23.8097 37.7738 24.8111C38.315 25.8125 38.5856 27.027 38.5856 28.4545ZM35.7795 28.4545C35.7795 27.5298 35.641 26.75 35.364 26.1151C35.0913 25.4801 34.7056 24.9986 34.207 24.6705C33.7085 24.3423 33.1246 24.1783 32.4556 24.1783C31.7866 24.1783 31.2028 24.3423 30.7042 24.6705C30.2056 24.9986 29.8178 25.4801 29.5408 26.1151C29.2681 26.75 29.1317 27.5298 29.1317 28.4545C29.1317 29.3793 29.2681 30.1591 29.5408 30.794C29.8178 31.429 30.2056 31.9105 30.7042 32.2386C31.2028 32.5668 31.7866 32.7308 32.4556 32.7308C33.1246 32.7308 33.7085 32.5668 34.207 32.2386C34.7056 31.9105 35.0913 31.429 35.364 30.794C35.641 30.1591 35.7795 29.3793 35.7795 28.4545ZM52.1863 26.4922H49.3865C49.3354 26.13 49.231 25.8082 49.0733 25.527C48.9157 25.2415 48.7132 24.9986 48.4661 24.7983C48.2189 24.598 47.9334 24.4446 47.6096 24.3381C47.29 24.2315 46.9426 24.1783 46.5676 24.1783C45.8901 24.1783 45.2999 24.3466 44.7971 24.6832C44.2942 25.0156 43.9043 25.5014 43.6273 26.1406C43.3503 26.7756 43.2118 27.5469 43.2118 28.4545C43.2118 29.3878 43.3503 30.1719 43.6273 30.8068C43.9086 31.4418 44.3006 31.9212 44.8034 32.245C45.3063 32.5689 45.888 32.7308 46.5485 32.7308C46.9192 32.7308 47.2623 32.6818 47.5776 32.5838C47.8972 32.4858 48.1806 32.343 48.4277 32.1555C48.6749 31.9638 48.8794 31.7315 49.0414 31.4588C49.2076 31.1861 49.3226 30.875 49.3865 30.5256L52.1863 30.5384C52.1138 31.1392 51.9327 31.7188 51.6429 32.277C51.3574 32.831 50.9718 33.3274 50.486 33.7663C50.0044 34.201 49.4292 34.5462 48.7601 34.8018C48.0953 35.0533 47.3432 35.179 46.5037 35.179C45.3361 35.179 44.2921 34.9148 43.3716 34.3864C42.4554 33.858 41.731 33.093 41.1983 32.0916C40.6699 31.0902 40.4057 29.8778 40.4057 28.4545C40.4057 27.027 40.6742 25.8125 41.2111 24.8111C41.748 23.8097 42.4767 23.0469 43.3972 22.5227C44.3176 21.9943 45.3532 21.7301 46.5037 21.7301C47.2623 21.7301 47.9654 21.8366 48.6131 22.0497C49.2651 22.2628 49.8425 22.5739 50.3453 22.983C50.8482 23.3878 51.2573 23.8842 51.5726 24.4723C51.8922 25.0604 52.0968 25.7337 52.1863 26.4922ZM53.6724 24.1911V21.9091H64.4238V24.1911H60.416V35H57.6802V24.1911H53.6724ZM77.6266 28.4545C77.6266 29.8821 77.356 31.0966 76.8148 32.098C76.2779 33.0994 75.5449 33.8643 74.6159 34.3928C73.6912 34.9169 72.6515 35.179 71.4966 35.179C70.3333 35.179 69.2892 34.9148 68.3645 34.3864C67.4398 33.858 66.709 33.093 66.1721 32.0916C65.6351 31.0902 65.3667 29.8778 65.3667 28.4545C65.3667 27.027 65.6351 25.8125 66.1721 24.8111C66.709 23.8097 67.4398 23.0469 68.3645 22.5227C69.2892 21.9943 70.3333 21.7301 71.4966 21.7301C72.6515 21.7301 73.6912 21.9943 74.6159 22.5227C75.5449 23.0469 76.2779 23.8097 76.8148 24.8111C77.356 25.8125 77.6266 27.027 77.6266 28.4545ZM74.8205 28.4545C74.8205 27.5298 74.682 26.75 74.405 26.1151C74.1323 25.4801 73.7466 24.9986 73.248 24.6705C72.7495 24.3423 72.1657 24.1783 71.4966 24.1783C70.8276 24.1783 70.2438 24.3423 69.7452 24.6705C69.2466 24.9986 68.8588 25.4801 68.5819 26.1151C68.3091 26.75 68.1728 27.5298 68.1728 28.4545C68.1728 29.3793 68.3091 30.1591 68.5819 30.794C68.8588 31.429 69.2466 31.9105 69.7452 32.2386C70.2438 32.5668 70.8276 32.7308 71.4966 32.7308C72.1657 32.7308 72.7495 32.5668 73.248 32.2386C73.7466 31.9105 74.1323 31.429 74.405 30.794C74.682 30.1591 74.8205 29.3793 74.8205 28.4545ZM79.6768 21.9091H82.4382V30.142H82.5469L88.2038 21.9091H90.6264V35H87.8587V26.7607H87.7628L82.0739 35H79.6768V21.9091ZM1.13778 57V43.9091H3.90554V49.3104H9.52415V43.9091H12.2855V57H9.52415V51.5923H3.90554V57H1.13778ZM16.8239 57H13.858L18.3771 43.9091H21.9439L26.4567 57H23.4908L20.2116 46.9006H20.1094L16.8239 57ZM16.6385 51.8544H23.6442V54.0149H16.6385V51.8544ZM43.7488 48.4922H40.949C40.8979 48.13 40.7935 47.8082 40.6358 47.527C40.4782 47.2415 40.2757 46.9986 40.0286 46.7983C39.7814 46.598 39.4959 46.4446 39.1721 46.3381C38.8525 46.2315 38.5051 46.1783 38.1301 46.1783C37.4526 46.1783 36.8624 46.3466 36.3596 46.6832C35.8567 47.0156 35.4668 47.5014 35.1898 48.1406C34.9128 48.7756 34.7743 49.5469 34.7743 50.4545C34.7743 51.3878 34.9128 52.1719 35.1898 52.8068C35.4711 53.4418 35.8631 53.9212 36.3659 54.245C36.8688 54.5689 37.4505 54.7308 38.111 54.7308C38.4817 54.7308 38.8248 54.6818 39.1401 54.5838C39.4597 54.4858 39.7431 54.343 39.9902 54.1555C40.2374 53.9638 40.4419 53.7315 40.6039 53.4588C40.7701 53.1861 40.8851 52.875 40.949 52.5256L43.7488 52.5384C43.6763 53.1392 43.4952 53.7188 43.2054 54.277C42.9199 54.831 42.5343 55.3274 42.0485 55.7663C41.5669 56.201 40.9917 56.5462 40.3226 56.8018C39.6578 57.0533 38.9057 57.179 38.0662 57.179C36.8986 57.179 35.8546 56.9148 34.9341 56.3864C34.0179 55.858 33.2935 55.093 32.7608 54.0916C32.2324 53.0902 31.9682 51.8778 31.9682 50.4545C31.9682 49.027 32.2367 47.8125 32.7736 46.8111C33.3105 45.8097 34.0392 45.0469 34.9597 44.5227C35.8801 43.9943 36.9157 43.7301 38.0662 43.7301C38.8248 43.7301 39.5279 43.8366 40.1756 44.0497C40.8276 44.2628 41.405 44.5739 41.9078 44.983C42.4107 45.3878 42.8198 45.8842 43.1351 46.4723C43.4547 47.0604 43.6593 47.7337 43.7488 48.4922ZM53.6532 57L49.4473 51.4197H48.5012V57H45.7335V43.9091H48.5012V49.1378H49.0574L53.4039 43.9091H56.8493L51.742 49.9815L57.0858 57H53.6532ZM57.7681 57V54.7756L58.1388 54.7436C58.6161 54.7053 59.0018 54.5241 59.2958 54.2003C59.5898 53.8722 59.8093 53.3501 59.9542 52.6342C60.1033 51.9141 60.1992 50.9467 60.2418 49.7322L60.4592 43.9091H69.3441V57H66.6531V46.1271H63.0288L62.8242 50.6847C62.756 52.1506 62.5813 53.348 62.3001 54.277C62.0231 55.206 61.5799 55.892 60.9705 56.3352C60.3654 56.7784 59.5366 57 58.484 57H57.7681ZM73.8825 57H70.9165L75.4357 43.9091H79.0025L83.5153 57H80.5494L77.2702 46.9006H77.168L73.8825 57ZM73.6971 51.8544H80.7028V54.0149H73.6971V51.8544ZM84.3814 60.1577V54.7947H85.2699C85.5724 54.5774 85.8494 54.2706 86.1009 53.8743C86.3523 53.4737 86.5675 52.9219 86.7464 52.2188C86.9254 51.5114 87.0533 50.5866 87.13 49.4446L87.5007 43.9091H96.1619V54.7947H97.5938V60.1449H94.9347V57H87.0405V60.1577H84.3814ZM88.4659 54.7947H93.5028V46.1911H89.9936L89.7891 49.4446C89.7337 50.3097 89.642 51.0767 89.5142 51.7457C89.3906 52.4148 89.2393 53.0007 89.0604 53.5036C88.8857 54.0021 88.6875 54.4325 88.4659 54.7947ZM99.2765 57V43.9091H108.097V46.1911H102.044V49.3104H107.644V51.5923H102.044V54.718H108.123V57H99.2765Z" fill="#1F2648"/>
<path d="M144.82 22.036C146.416 22.036 147.732 22.456 148.768 23.296C149.832 24.108 150.644 25.522 151.204 27.538C151.792 29.526 152.086 32.27 152.086 35.77C152.086 39.242 151.792 41.986 151.204 44.002C150.644 46.018 149.832 47.432 148.768 48.244C147.732 49.056 146.416 49.462 144.82 49.462C143.196 49.462 141.852 49.056 140.788 48.244C139.752 47.432 138.94 46.018 138.352 44.002C137.792 41.986 137.512 39.242 137.512 35.77C137.512 32.27 137.792 29.512 138.352 27.496C138.912 25.48 139.724 24.066 140.788 23.254C141.852 22.442 143.196 22.036 144.82 22.036ZM144.82 24.892C143.336 24.892 142.286 25.718 141.67 27.37C141.082 29.022 140.788 31.374 140.788 34.426V37.114C140.788 40.138 141.082 42.49 141.67 44.17C142.286 45.822 143.336 46.648 144.82 46.648C146.304 46.648 147.34 45.822 147.928 44.17C148.516 42.49 148.81 40.138 148.81 37.114V34.426C148.81 31.374 148.516 29.022 147.928 27.37C147.34 25.718 146.304 24.892 144.82 24.892ZM161.036 38.04L159.5 49H158.572L159.228 44.328C158.438 45.064 157.622 45.432 156.78 45.432C156.086 45.432 155.537 45.2133 155.132 44.776C154.726 44.3387 154.524 43.768 154.524 43.064C154.524 42.968 154.534 42.8027 154.556 42.568L155.196 38.04H156.108L155.484 42.552C155.462 42.7653 155.452 42.9147 155.452 43C155.452 43.512 155.585 43.912 155.852 44.2C156.118 44.4773 156.492 44.616 156.972 44.616C157.409 44.616 157.83 44.504 158.236 44.28C158.652 44.056 159.025 43.7573 159.356 43.384L160.108 38.04H161.036ZM167.262 49L166.926 45.992H163.31L162.126 49H161.166L165.646 38.04H166.83L168.238 49H167.262ZM163.614 45.208H166.846L166.126 38.808L163.614 45.208ZM174.619 37.864C175.099 37.864 175.515 37.9493 175.867 38.12C176.219 38.2907 176.545 38.5467 176.843 38.888L176.283 39.432C176.006 39.1547 175.739 38.9573 175.483 38.84C175.238 38.7227 174.945 38.664 174.603 38.664C173.739 38.664 173.019 39.0053 172.443 39.688C171.878 40.3707 171.462 41.2187 171.195 42.232C170.929 43.2453 170.795 44.2587 170.795 45.272C170.795 46.296 170.977 47.064 171.339 47.576C171.702 48.088 172.198 48.344 172.827 48.344C173.243 48.344 173.611 48.2693 173.931 48.12C174.251 47.9707 174.587 47.752 174.939 47.464L175.355 48.088C174.555 48.8133 173.686 49.176 172.747 49.176C171.862 49.176 171.158 48.8347 170.635 48.152C170.113 47.4693 169.851 46.4987 169.851 45.24C169.851 44.0773 170.022 42.9307 170.363 41.8C170.705 40.6693 171.233 39.7307 171.947 38.984C172.662 38.2373 173.553 37.864 174.619 37.864ZM181.635 37.864C182.563 37.864 183.288 38.2053 183.811 38.888C184.333 39.56 184.595 40.52 184.595 41.768C184.595 42.9093 184.429 44.0507 184.099 45.192C183.768 46.3227 183.245 47.272 182.531 48.04C181.816 48.7973 180.915 49.176 179.827 49.176C178.899 49.176 178.173 48.84 177.651 48.168C177.128 47.4853 176.867 46.52 176.867 45.272C176.867 44.1627 177.032 43.0373 177.363 41.896C177.704 40.7547 178.232 39.8 178.947 39.032C179.661 38.2533 180.557 37.864 181.635 37.864ZM181.587 38.648C180.712 38.648 179.992 39.0107 179.427 39.736C178.861 40.4507 178.451 41.32 178.195 42.344C177.949 43.368 177.827 44.3547 177.827 45.304C177.827 46.3173 178.003 47.0853 178.355 47.608C178.717 48.12 179.224 48.376 179.875 48.376C180.781 48.376 181.512 48.0133 182.067 47.288C182.632 46.5627 183.032 45.688 183.267 44.664C183.512 43.64 183.635 42.6533 183.635 41.704C183.635 40.68 183.459 39.9173 183.107 39.416C182.755 38.904 182.248 38.648 181.587 38.648ZM190.487 43.208C191.703 43.4427 192.311 44.1627 192.311 45.368C192.311 45.9867 192.183 46.568 191.927 47.112C191.682 47.656 191.271 48.1093 190.695 48.472C190.119 48.824 189.367 49 188.439 49H185.927L187.479 38.04H189.991C190.876 38.04 191.564 38.2427 192.055 38.648C192.546 39.0533 192.791 39.6293 192.791 40.376C192.791 41.1333 192.583 41.7573 192.167 42.248C191.762 42.728 191.202 43.048 190.487 43.208ZM188.295 38.808L187.719 42.856H189.415C190.204 42.856 190.807 42.632 191.223 42.184C191.639 41.7253 191.847 41.1333 191.847 40.408C191.847 39.8533 191.687 39.448 191.367 39.192C191.058 38.936 190.599 38.808 189.991 38.808H188.295ZM188.567 48.216C189.591 48.216 190.311 47.9387 190.727 47.384C191.143 46.8293 191.351 46.1627 191.351 45.384C191.351 44.7653 191.191 44.3173 190.871 44.04C190.551 43.7627 190.071 43.624 189.431 43.624H187.623L186.967 48.216H188.567Z" fill="#1F2648"/>
<path d="M133.26 44.34L128.16 50.494H127.48L122.414 44.34V43.048L126.698 44.85V21.798H128.976V44.85L133.26 43.048V44.34Z" fill="#1F2648"/>
<path d="M111.496 29.388H112.06L111.736 31.74H111.184L111.256 30H106.288L105.808 31.74H105.268L105.604 29.388H106.072C106.296 29.188 106.492 28.94 106.66 28.644C106.836 28.348 107.02 27.904 107.212 27.312C107.412 26.72 107.656 25.88 107.944 24.792L108.748 21.78H112.564L111.496 29.388ZM110.776 29.388L111.76 22.392H109.3L108.664 24.864C108.384 25.936 108.148 26.756 107.956 27.324C107.764 27.892 107.576 28.328 107.392 28.632C107.208 28.936 106.988 29.188 106.732 29.388H110.776ZM118.02 21.648C118.9 21.648 119.592 21.932 120.096 22.5C120.6 23.06 120.852 23.864 120.852 24.912C120.852 25.712 120.72 26.512 120.456 27.312C120.192 28.112 119.76 28.784 119.16 29.328C118.568 29.864 117.808 30.132 116.88 30.132C116 30.132 115.304 29.848 114.792 29.28C114.28 28.712 114.024 27.904 114.024 26.856C114.024 26.08 114.16 25.292 114.432 24.492C114.704 23.692 115.14 23.02 115.74 22.476C116.34 21.924 117.1 21.648 118.02 21.648ZM117.984 22.26C117.216 22.26 116.592 22.508 116.112 23.004C115.64 23.492 115.3 24.088 115.092 24.792C114.884 25.496 114.78 26.192 114.78 26.88C114.78 27.76 114.964 28.42 115.332 28.86C115.708 29.292 116.228 29.508 116.892 29.508C117.676 29.508 118.308 29.264 118.788 28.776C119.268 28.28 119.608 27.68 119.808 26.976C120.008 26.272 120.108 25.572 120.108 24.876C120.108 24.004 119.924 23.352 119.556 22.92C119.188 22.48 118.664 22.26 117.984 22.26Z" fill="#1F2648"/>
</svg>
